# xmcd
# 
# Track frame offsets:
#     150
#     13988
#     29522
#     43279
#     57317
#     76667
#     93229
#     106801
#     120779
#     135321
#     146846
#     160717
#     173930
#     183329
#     196606
#     211138
#     226797
#     237830
#     252346
#     266100
#     281443
#     295182
#     309058
#     329185
# 
# Disc length: 4593
# 
# Revision: 3
# Processed by: cddbd v1.5.2PL0 Copyright (c) Steve Scherf et al.
# Submitted via: fre:ac v1.0.17
# 
DISCID=4711ef18
DTITLE=Louis ARMSTRONG - Les Triomphes du Jazz 2-3
DYEAR=2003
DGENRE=Jazz
TTITLE0=I want a little girl
TTITLE1=Sugar
TTITLE2=Blues in the South
TTITLE3=Where the Blues were born in New Orleans
TTITLE4=Back O'town Blues
TTITLE5=Saint-James infirmary
TTITLE6=Jack-Armstrong Blues
TTITLE7=Rockin' chair
TTITLE8=Someday you'll be sorry
TTITLE9=I wonder, I wonder, I wonder
TTITLE10=That lucky old sun
TTITLE11=Blueberry Hill
TTITLE12=Panama, 1
TTITLE13=Panama, 2
TTITLE14=New Orleans function, 1 (Flee as a bird)
TTITLE15=New Orleans function, 2 (Oh ! Didn't he ramble !)
TTITLE16=Bugle call Rag, 1 (Ole miss)
TTITLE17=Bugle call Rag, 2 (Ole miss)
TTITLE18=Bugle call Rag, 3 (Ole miss)
TTITLE19=La vie en rose
TTITLE20=C'est si bon
TTITLE21=You rascal you
TTITLE22=A kiss to build a dream on
TTITLE23=I get ideas
EXTD=Sa majesté le Jazz
EXTT0=
EXTT1=
EXTT2=
EXTT3=
EXTT4=
EXTT5=
EXTT6=
EXTT7=
EXTT8=
EXTT9=
EXTT10=
EXTT11=
EXTT12=
EXTT13=
EXTT14=
EXTT15=
EXTT16=
EXTT17=
EXTT18=
EXTT19=
EXTT20=
EXTT21=
EXTT22=
EXTT23=
PLAYORDER=
